<?xml version="1.0" encoding="UTF-8"?>
<svg xmlns="http://www.w3.org/2000/svg" viewBox="0 0 24 24" fill="none" stroke="currentColor">
  <path d="M9.93 12L6.56 20.02H5.08L14.46 3.98H15.93L17.66 20.02H16.23L15.13 12H9.93ZM10.17 10.9H14.95L14.58 7.24C14.51 6.49 14.46 5.76 14.44 5.03H14.37C14.19 5.82 13.96 6.58 13.69 7.32L12.48 10.9H10.17Z"/>
  <path d="M18.97 20.02V18.95L21.83 15.95C22.78 14.94 23.34 14.36 23.52 14.21C23.98 13.82 24.3 13.37 24.47 12.88C24.64 12.4 24.73 11.89 24.73 11.36C24.73 10.37 24.42 9.58 23.81 8.98C23.21 8.38 22.4 8.08 21.37 8.08C20.38 8.08 19.58 8.37 18.97 8.94C18.36 9.52 18.05 10.31 18.05 11.31H16.75C16.75 9.95 17.18 8.86 18.04 8.05C18.89 7.24 20 6.84 21.37 6.84C22.79 6.84 23.92 7.24 24.76 8.05C25.59 8.86 26.01 9.92 26.01 11.22C26.01 12.38 25.38 13.6 24.12 14.88L21.86 17.25V17.33H26.11V20.02H18.97Z"/>
</svg>
