<?xml version="1.0" encoding="UTF-8"?>
<svg xmlns="http://www.w3.org/2000/svg" viewBox="0 0 24 24" fill="none" stroke="currentColor">
  <path d="M24 11.9977C24 5.37162 18.6274 0 12 0C5.37258 0 0 5.37162 0 11.9977C0 18.6252 5.37258 23.9968 12 23.9968C18.6274 23.9968 24 18.6252 24 11.9977Z" fill="none"/>
  <path d="M19.8494 19.226L12.1371 23.9274C12.0926 23.9537 12.0481 23.9799 12 23.9968C11.9519 23.9799 11.9074 23.9537 11.8629 23.9274L4.15058 19.226C3.85331 19.0473 3.66254 18.7497 3.62407 18.4128L2.0441 5.40685C2.0267 5.3206 2.04001 5.23435 2.05918 5.15748C2.07643 5.07853 2.10951 5.00372 2.15408 4.93828C2.19864 4.87285 2.25348 4.81866 2.31526 4.77834C2.38205 4.7355 2.45658 4.70655 2.53485 4.69311L11.9534 3.0111C11.9689 3.0088 11.9842 3.00727 12.0003 3.00574C12.0158 3.00727 12.0311 3.0088 12.0466 3.0111L21.4635 4.69465C21.5433 4.7081 21.6171 4.73704 21.6839 4.77988C21.7456 4.8202 21.8005 4.87439 21.845 4.93982C21.8896 5.00526 21.9227 5.08007 21.9399 5.15902C21.9591 5.23589 21.9724 5.3206 21.9559 5.40839L20.3743 18.414C20.3366 18.7497 20.1458 19.0473 19.8494 19.226Z" fill="none"/>
  <path d="M17.601 7.38662H13.0193L12.0005 5.01074L10.9808 7.38662H6.3999L11.9993 17.1604L17.601 7.38662ZM12.0005 14.8773L9.19376 9.90678H10.7374L12.0005 12.6895L13.2627 9.90678H14.8063L12.0005 14.8773Z" fill="currentColor"/>
</svg>
